# xmcd
#
# Track frame offsets:
#	150
#	15932
#	34030
#
# Disc length: 718 seconds
#
# Revision: 0
# Processed by: cddbd v1.5PL3 Copyright (c) Steve Scherf et al.
# Submitted via: dBpowerAMP V4.0
#
DISCID=1302cc03
DTITLE=Lil' Mo - Superwoman
DYEAR=2000
DGENRE=Rnb
TTITLE0=Superwoman (amended version. No Rap)
TTITLE1=Superwoman Pt. 2 (Remix Feat. Fabulous)
TTITLE2=Superwoman Pt. 2 (Instrumental)
EXTD=
EXTT0=
EXTT1=
EXTT2=
PLAYORDER=
